<?xml version="1.0" standalone="no"?>
<!DOCTYPE svg PUBLIC "-//W3C//DTD SVG 20010904//EN"
 "http://www.w3.org/TR/2001/REC-SVG-20010904/DTD/svg10.dtd">
<svg version="1.0" xmlns="http://www.w3.org/2000/svg"
 width="356.000000pt" height="346.000000pt" viewBox="0 0 356.000000 346.000000"
 preserveAspectRatio="xMidYMid meet">

<g transform="translate(0.000000,346.000000) scale(0.100000,-0.100000)"
fill="#000000" stroke="none">
<path d="M1686 3126 c-75 -28 -126 -82 -146 -155 -6 -22 -10 -223 -10 -508 l0
-472 -492 -3 c-483 -3 -494 -3 -533 -25 -81 -43 -119 -108 -120 -204 0 -56 4
-73 30 -115 34 -54 78 -88 134 -104 22 -6 223 -10 509 -10 l472 0 0 -472 c0
-286 4 -487 10 -509 16 -56 50 -100 104 -134 42 -25 59 -30 116 -30 57 0 74 5
116 30 30 19 60 49 79 79 l30 49 3 493 3 493 493 3 493 3 49 30 c30 19 60 49
79 79 25 42 30 59 30 116 0 57 -5 74 -30 116 -34 54 -78 88 -134 104 -22 6
-223 10 -508 10 l-472 0 -3 493 -3 494 -30 49 c-57 91 -175 135 -269 100z"/>
</g>
</svg>
