<?xml version="1.0" standalone="no"?>
<!DOCTYPE svg PUBLIC "-//W3C//DTD SVG 20010904//EN"
 "http://www.w3.org/TR/2001/REC-SVG-20010904/DTD/svg10.dtd">
<svg version="1.0" xmlns="http://www.w3.org/2000/svg"
 width="334.000000pt" height="330.000000pt" viewBox="0 0 334.000000 330.000000"
 preserveAspectRatio="xMidYMid meet">

<g transform="translate(0.000000,330.000000) scale(0.100000,-0.100000)"
fill="#000000" stroke="none">
<path d="M1405 3038 c-22 -5 -67 -16 -100 -24 -33 -9 -71 -18 -85 -21 -38 -8
-263 -117 -317 -154 -175 -118 -287 -221 -386 -355 -98 -131 -195 -334 -227
-474 -5 -19 -16 -64 -25 -100 -22 -84 -25 -427 -6 -510 7 -30 18 -75 23 -100
79 -346 321 -680 623 -862 129 -77 266 -135 420 -176 198 -53 499 -48 720 12
33 9 69 20 80 25 11 5 36 15 55 22 134 48 331 173 461 291 44 40 151 171 206
253 42 62 110 194 132 255 7 19 17 44 22 55 29 66 55 197 69 350 31 356 -68
692 -294 990 -79 104 -285 289 -381 341 -78 42 -131 67 -220 104 -43 18 -143
49 -195 60 -30 6 -71 16 -91 21 -46 12 -431 9 -484 -3z m523 -270 c76 -18 156
-46 242 -86 82 -37 230 -146 312 -229 81 -83 185 -225 220 -303 89 -195 110
-292 110 -510 0 -218 -21 -315 -110 -510 -35 -78 -139 -220 -220 -303 -82 -83
-230 -192 -312 -229 -194 -89 -292 -110 -510 -110 -218 0 -316 21 -510 110
-82 37 -230 146 -312 229 -81 83 -185 225 -220 303 -89 195 -110 292 -110 510
0 218 21 315 110 510 35 78 139 220 220 303 78 79 187 161 283 214 49 28 184
80 254 99 136 37 404 38 553 2z"/>
<path d="M1221 2092 c-48 -45 -61 -96 -38 -145 9 -17 75 -90 147 -162 71 -71
130 -136 130 -144 0 -8 -60 -76 -133 -150 -146 -149 -168 -184 -147 -245 22
-68 86 -104 153 -84 33 9 72 41 178 145 74 73 142 133 149 133 8 0 73 -58 145
-130 147 -145 185 -168 243 -149 44 14 69 34 88 71 34 65 5 115 -160 278 -64
63 -116 121 -116 129 0 8 60 76 133 150 146 149 168 184 147 245 -13 41 -44
70 -92 85 -59 19 -96 -4 -243 -149 -72 -72 -137 -130 -145 -130 -8 0 -76 60
-150 134 -173 171 -215 188 -289 118z"/>
</g>
</svg>
