<?xml version="1.0" standalone="no"?>
<!DOCTYPE svg PUBLIC "-//W3C//DTD SVG 20010904//EN"
 "http://www.w3.org/TR/2001/REC-SVG-20010904/DTD/svg10.dtd">
<svg version="1.0" xmlns="http://www.w3.org/2000/svg"
 width="324.000000pt" height="326.000000pt" viewBox="0 0 324.000000 326.000000"
 preserveAspectRatio="xMidYMid meet">

<g transform="translate(0.000000,326.000000) scale(0.100000,-0.100000)"
fill="#000000" stroke="none">
<path d="M2385 2963 c-99 -35 -147 -68 -262 -178 l-118 -114 332 -333 333
-333 71 70 c177 175 239 289 239 440 0 110 -34 203 -109 295 -60 75 -113 112
-217 148 -71 26 -205 28 -269 5z"/>
<path d="M1194 1858 c-475 -477 -656 -665 -672 -698 -33 -70 -262 -767 -262
-800 0 -41 57 -100 98 -100 35 0 733 229 802 263 32 16 234 211 697 672 359
358 653 657 653 665 0 19 -630 650 -650 650 -9 0 -308 -294 -666 -652z"/>
</g>
</svg>
