<svg width="32" height="31" viewBox="0 0 32 31" fill="none" xmlns="http://www.w3.org/2000/svg">
<path d="M25.0214 5.13441L19.9773 5.75969V10.1895V14.6193H21.9208H23.8553L23.8824 13.36L23.9095 12.1094L25.7897 13.9236C26.8202 14.9188 27.6609 15.773 27.6609 15.8171C27.6609 15.8611 26.8112 16.733 25.7626 17.7458L23.8643 19.5952V18.3358V17.0853H21.9208H19.9773V21.5151V25.9449L24.8858 26.5438C27.5796 26.8696 29.9208 27.1515 30.0835 27.1867L30.3728 27.2307V15.8611C30.3728 5.09037 30.3637 4.49151 30.2191 4.50032C30.1287 4.50912 27.7875 4.79094 25.0214 5.13441Z" fill="#D54C4C"/>
<path d="M13.3151 5.81251C12.0405 6.10313 11.2902 7.39773 11.6789 8.6483C11.8145 9.09745 12.4202 9.75796 12.8812 9.96052C13.3151 10.1543 14.2462 10.1807 14.6801 10.0046C15.801 9.5466 16.3795 8.21677 15.9095 7.15114C15.6473 6.55228 15.0688 6.04148 14.4541 5.86535C13.9388 5.71563 13.7671 5.70683 13.3151 5.81251Z" fill="#D54C4C"/>
<path d="M6.19205 9.64351C5.722 9.74039 3.31748 10.7444 3.14572 10.9117C3.05533 10.9998 4.14007 13.1662 4.26663 13.1398C4.32991 13.1222 4.87228 12.8932 5.46889 12.6202C6.0655 12.356 6.69827 12.1094 6.87906 12.0918C7.30392 12.0302 8.09036 12.356 8.009 12.5498C7.98188 12.6202 7.49375 13.5185 6.92426 14.5489C5.75815 16.6273 5.61352 17.0412 5.78527 17.8339C5.93894 18.5648 6.31861 18.9964 7.97284 20.2998C8.80448 20.9515 9.50957 21.5239 9.53669 21.5679C9.5638 21.6208 9.25646 22.5895 8.85872 23.7432C8.46098 24.8881 8.13556 25.8657 8.13556 25.9009C8.13556 25.9449 8.74121 25.9802 9.48245 25.9802H10.8384L11.5163 23.9634C11.905 22.8273 12.2034 21.7969 12.2034 21.6032C12.2034 21.4094 12.1401 21.0395 12.0587 20.7841C11.9322 20.3702 11.7785 20.1677 10.8384 19.2429L9.76267 18.1685L10.6847 16.4864C11.2 15.5617 11.6429 14.8043 11.67 14.7955C11.7062 14.7955 11.8598 14.9893 12.0135 15.227C12.4293 15.8523 13.1163 16.4424 13.8124 16.7594C14.4 17.0324 14.4542 17.0412 15.8915 17.0677L17.3559 17.1029V15.8611V14.6194H16.2983C14.7887 14.6106 14.6621 14.5489 13.8395 13.316C13.0983 12.2063 12.5469 11.6603 11.7875 11.2904C10.4678 10.6475 8.13556 9.69636 7.64742 9.60829C6.99657 9.4938 6.87906 9.4938 6.19205 9.64351Z" fill="#D54C4C"/>
<path d="M5.11634 20.2117C4.6734 20.7753 4.52877 20.8194 3.12764 20.8722L1.85307 20.9162L1.82595 22.1844L1.79883 23.4438L3.31747 23.4086C4.7638 23.3821 4.86323 23.3645 5.40561 23.1267C6.09261 22.8185 6.57171 22.4574 7.05081 21.8938L7.40335 21.4799L6.43612 20.6961C5.90278 20.2645 5.44177 19.9034 5.41465 19.9034C5.37849 19.9034 5.2429 20.0444 5.11634 20.2117Z" fill="#D54C4C"/>
</svg>
