<svg width="30" height="30" viewBox="0 0 30 30" fill="none" xmlns="http://www.w3.org/2000/svg">
<path d="M7.53059 6.90052C3.51013 10.7046 0.15824 13.8747 0.0859625 13.9698C-0.0405239 14.1178 -0.0314892 14.1601 0.140171 14.4559C0.646117 15.2907 1.76642 15.5972 2.54341 15.1217C2.74218 15.0054 5.60619 12.3108 8.90387 9.14072C12.2016 5.97062 14.93 3.37114 14.9662 3.37114C15.0023 3.37114 17.7308 5.97062 21.0285 9.14072C24.3262 12.3108 27.1902 15.0054 27.389 15.1217C28.175 15.6077 29.2772 15.2907 29.7922 14.4454L30 14.1178L29.6025 13.7162C29.3856 13.4943 28.4009 12.5644 27.4161 11.6451L25.6362 9.97552L25.6272 6.35103V2.73711H23.4588H21.2995L21.2724 4.2799L21.2453 5.81212L18.1555 2.90619C16.4569 1.3 15.0114 -0.0103091 14.9481 0.000257912C14.8849 0.000257912 11.542 3.10696 7.53059 6.90052Z" fill="#4993D7"/>
<path d="M9.13869 10.9688L3.35645 16.3369L3.32935 23.1631L3.31128 30H14.9661H26.6209V24.0296V18.0698L20.8297 11.8564C17.6404 8.44329 15.0113 5.63247 14.9751 5.6219C14.948 5.61133 12.3189 8.02061 9.13869 10.9688ZM17.8572 22.6559V27.7809H14.9661H12.075V22.6559V17.5309H14.9661H17.8572V22.6559Z" fill="#4993D7"/>
</svg>
