<?xml version="1.0" standalone="no"?>
<!DOCTYPE svg PUBLIC "-//W3C//DTD SVG 20010904//EN"
 "http://www.w3.org/TR/2001/REC-SVG-20010904/DTD/svg10.dtd">
<svg version="1.0" xmlns="http://www.w3.org/2000/svg"
 width="352.000000pt" height="346.000000pt" viewBox="0 0 352.000000 346.000000"
 preserveAspectRatio="xMidYMid meet">

<g transform="translate(0.000000,346.000000) scale(0.100000,-0.100000)"
fill="#000000" stroke="none">
<path d="M1675 3011 c-43 -19 -100 -78 -116 -118 -5 -13 -9 -48 -9 -78 0 -30
4 -65 9 -78 16 -40 73 -99 116 -118 83 -38 181 -15 243 56 42 48 52 74 52 140
0 66 -10 92 -52 140 -41 47 -99 75 -158 75 -25 0 -63 -9 -85 -19z"/>
<path d="M2425 2726 c-118 -52 -179 -206 -126 -321 23 -51 98 -118 149 -133
50 -15 81 -15 140 0 60 15 142 94 160 154 48 164 -62 315 -230 314 -35 -1 -76
-7 -93 -14z"/>
<path d="M937 2675 c-99 -35 -153 -153 -113 -248 17 -41 74 -91 121 -107 79
-26 183 19 219 95 50 105 -2 226 -113 263 -43 15 -67 14 -114 -3z"/>
<path d="M2750 1995 c-177 -55 -238 -287 -115 -433 73 -87 218 -114 321 -60
94 49 143 131 144 239 0 184 -172 309 -350 254z"/>
<path d="M611 1884 c-112 -58 -112 -227 0 -284 107 -55 233 20 233 139 -1 90
-58 152 -148 158 -34 3 -62 -2 -85 -13z"/>
<path d="M2401 1279 c-66 -26 -137 -94 -171 -164 -21 -41 -25 -65 -25 -135 0
-79 3 -90 36 -150 127 -232 458 -224 570 15 34 71 39 171 13 248 -21 61 -94
141 -158 174 -72 37 -188 42 -265 12z"/>
<path d="M914 1077 c-31 -28 -37 -42 -41 -84 -7 -67 20 -114 79 -137 93 -38
178 23 178 127 0 74 -58 127 -140 127 -32 0 -48 -7 -76 -33z"/>
<path d="M1690 741 c-36 -36 -46 -73 -30 -112 39 -92 161 -92 200 0 16 39 6
76 -30 112 -22 23 -38 29 -70 29 -32 0 -48 -6 -70 -29z"/>
</g>
</svg>
