<svg width="15" height="15" viewBox="0 0 15 15" fill="none" xmlns="http://www.w3.org/2000/svg">
<path d="M6.32264 1.52927C4.16901 1.86447 2.32544 3.10469 1.43298 4.81419C0.544711 6.50692 0.653649 8.45106 1.72208 10.0726C1.98605 10.4706 2.66063 11.1787 3.08382 11.5055C3.43996 11.7779 3.44415 11.7863 3.30588 12.2765C3.18857 12.708 2.95393 13.1857 2.62711 13.6759C2.47208 13.9064 2.34639 14.0991 2.34639 14.1117C2.34639 14.1242 2.61454 14.1201 2.94555 14.1075C3.41901 14.0907 3.61594 14.0656 3.90924 13.9776C4.55868 13.7849 5.06566 13.4916 5.53493 13.0432L5.80728 12.7793L6.13829 12.8421C7.98186 13.1941 9.95952 12.8002 11.5014 11.7695C13.919 10.1564 14.7486 7.29882 13.5126 4.86866C12.6159 3.11307 10.764 1.86028 8.56845 1.52927C8.0489 1.45385 6.82544 1.45385 6.32264 1.52927Z" fill="#6A66DC"/>
<rect x="6.62859" y="6.7625" width="7.45714" height="7.1" rx="3.55" fill="white" stroke="#6A66DC" stroke-width="0.4"/>
</svg>
