<svg width="31" height="30" viewBox="0 0 31 30" fill="none" xmlns="http://www.w3.org/2000/svg">
<path d="M14.1393 0.959509C9.2107 1.39182 4.7107 4.38638 2.44998 8.7306C1.31427 10.8922 0.821411 12.9167 0.821411 15.3945C0.821411 17.8197 1.28213 19.7915 2.34284 21.8792C5.95355 28.986 14.7714 31.9173 21.9607 28.4061C25.5928 26.6241 28.1964 23.6928 29.4821 19.9075C29.9643 18.4629 30.1786 17.1238 30.1786 15.3945C30.1786 13.6653 29.9643 12.3262 29.4821 10.8816C27.575 5.27209 22.6678 1.46563 16.6786 0.948965C16.0036 0.896244 15.3714 0.854067 15.2857 0.854067C15.2 0.864611 14.6857 0.906788 14.1393 0.959509ZM17.1286 8.03468C17.975 8.42481 18.65 9.06801 19.0678 9.901C19.3893 10.5442 19.4107 10.6707 19.4107 11.6513C19.4107 12.5792 19.3786 12.7796 19.1214 13.3068C18.7571 14.0871 17.9214 14.9095 17.1286 15.268C16.5928 15.5211 16.3893 15.5527 15.4464 15.5527C14.5143 15.5527 14.3 15.5211 13.7857 15.2786C12.9071 14.8673 12.2428 14.2347 11.8357 13.4122C11.5036 12.7585 11.4821 12.632 11.4821 11.6513C11.4821 10.734 11.5143 10.5231 11.7607 10.0064C12.2428 8.9942 13.0893 8.24556 14.1928 7.83434C14.45 7.74998 14.9428 7.70781 15.5536 7.7289C16.3357 7.74998 16.6357 7.80271 17.1286 8.03468ZM17.6428 17.883C19.6571 18.252 21.6821 19.2432 23.3 20.635L23.6428 20.9303L22.9893 21.6894C21.6178 23.3027 19.625 24.5469 17.6964 25.0003C15.6607 25.4748 13.25 25.2112 11.2893 24.3255C9.7357 23.619 8.05355 22.2588 7.43213 21.2149L7.24998 20.8986L8.10713 20.2132C9.53213 19.0956 11.4286 18.2309 13.2071 17.883C14.2464 17.6721 16.5607 17.6721 17.6428 17.883Z" fill="#4993D7"/>
</svg>
