<svg width="10" height="12" viewBox="0 0 10 12" fill="none" xmlns="http://www.w3.org/2000/svg">
<path d="M3.08163 0.01152C2.7 0.0765854 2.35306 0.357296 2.23061 0.697495C2.21224 0.749547 2.19388 0.905704 2.18571 1.09904C2.17755 1.28494 2.16122 1.4318 2.14694 1.45597C2.09388 1.5452 2.03673 1.5545 1.53673 1.5545C0.963265 1.5545 0.836735 1.57123 0.620408 1.66418C0.344898 1.78502 0.157143 1.97835 0.0489796 2.2572C0.00204082 2.37804 0 2.39663 0 2.98779C0 3.57152 0.00204082 3.59569 0.0408163 3.64217C0.0653061 3.67005 0.118367 3.6998 0.159184 3.71095C0.265306 3.73698 9.73469 3.73698 9.84082 3.71095C9.88163 3.6998 9.93469 3.67005 9.95918 3.64217C9.99796 3.59569 10 3.57152 10 2.98779C10 2.39663 9.99796 2.37804 9.95102 2.2572C9.84286 1.98021 9.65306 1.78316 9.38163 1.66418C9.16326 1.57123 9.03878 1.5545 8.46122 1.5545C8.02857 1.5545 7.9898 1.55264 7.92857 1.51732C7.89184 1.49687 7.8551 1.46527 7.84694 1.44668C7.83878 1.42994 7.82449 1.27193 7.81633 1.09904C7.80612 0.907563 7.78775 0.749547 7.76939 0.697495C7.71837 0.55621 7.6102 0.400053 7.48163 0.284794C7.35714 0.173254 7.28163 0.130497 7.07143 0.0487002L6.94898 0.00222497L5.06122 0.000365957C4.02245 -0.00149305 3.13265 0.00408398 3.08163 0.01152ZM6.82449 0.831343C6.91224 0.868523 6.93878 0.952179 6.93878 1.1827C6.93878 1.33142 6.93061 1.40392 6.90816 1.44296C6.84286 1.56008 6.92857 1.5545 4.99592 1.5545C3.28571 1.5545 3.23265 1.55264 3.16939 1.51732C3.07959 1.46712 3.0551 1.38347 3.06531 1.12878L3.07143 0.918717L3.13878 0.864805L3.20408 0.810894H4.9898C6.27959 0.810894 6.78775 0.816471 6.82449 0.831343Z" fill="#FF0808"/>
<path d="M1.00823 4.29473L0.938843 4.35794V7.69486C0.938843 11.0299 0.938843 11.0318 0.9817 11.1582C1.04088 11.3348 1.12456 11.4612 1.26741 11.5913C1.40007 11.7122 1.49394 11.7661 1.69394 11.8349L1.8266 11.8813H5.00007C8.04701 11.8813 8.17762 11.8795 8.28578 11.846C8.45721 11.794 8.60007 11.714 8.73068 11.5951C8.8715 11.4705 8.95925 11.3348 9.01843 11.1582C9.06129 11.0318 9.06129 11.0299 9.06129 7.69114C9.05925 4.53268 9.05721 4.3505 9.02456 4.31332C9.00415 4.29101 8.96945 4.26499 8.94496 4.25197C8.91231 4.2371 7.8919 4.23153 4.98986 4.23153H1.07762L1.00823 4.29473ZM2.95313 5.13314C3.06945 5.18706 3.15721 5.28558 3.18578 5.39712C3.19599 5.43616 3.20415 6.59247 3.20415 7.98858C3.20415 10.8329 3.21435 10.6395 3.04905 10.7734C2.82048 10.9556 2.4715 10.8886 2.35721 10.6414C2.33068 10.58 2.3266 10.2789 2.3266 7.98301C2.3266 5.50123 2.32864 5.38969 2.36537 5.31905C2.46945 5.1127 2.7266 5.0309 2.95313 5.13314ZM5.17354 5.12199C5.2817 5.16661 5.40211 5.2893 5.42252 5.37853C5.43068 5.41757 5.43884 6.60362 5.43884 8.01461V10.58L5.39394 10.6581C5.22252 10.95 4.77762 10.95 4.60619 10.6581L4.56129 10.58V8.01461C4.56129 6.60362 4.56945 5.41757 4.57762 5.37853C4.59803 5.2893 4.71843 5.16661 4.8266 5.12199C4.8715 5.1034 4.94905 5.08667 5.00007 5.08667C5.05109 5.08667 5.12864 5.1034 5.17354 5.12199ZM7.40415 5.11641C7.50415 5.15359 7.58782 5.22795 7.63476 5.31905C7.6715 5.38969 7.67354 5.50123 7.67354 7.98301C7.67354 10.7938 7.67966 10.6414 7.56537 10.7529C7.51027 10.8068 7.40211 10.8589 7.31027 10.8738C7.10211 10.9109 6.86333 10.7641 6.81843 10.5745C6.78986 10.4536 6.78782 5.50681 6.81435 5.39712C6.87354 5.16475 7.16741 5.02532 7.40415 5.11641Z" fill="#FF0808"/>
</svg>
